<?xml version="1.0" encoding="UTF-8" standalone="no"?>
<svg
   height="800"
   width="1200"
   viewBox="-11.493675 -16.3118 99.61185 97.8708"
   version="1.1"
   id="svg878"
   sodipodi:docname="LinkedIn-Icon-Logo.svg"
   inkscape:version="1.1.1 (3bf5ae0d25, 2021-09-20, custom)"
   xmlns:inkscape="http://www.inkscape.org/namespaces/inkscape"
   xmlns:sodipodi="http://sodipodi.sourceforge.net/DTD/sodipodi-0.dtd"
   xmlns="http://www.w3.org/2000/svg"
   xmlns:svg="http://www.w3.org/2000/svg">
  <defs
     id="defs882">
    <clipPath
       clipPathUnits="userSpaceOnUse"
       id="clipPath2402">
      <rect
         style="fill:none;stroke-width:0.734031;stroke-linecap:round;stroke-linejoin:round"
         id="rect2404"
         width="64.793549"
         height="64.793549"
         x="-0.2455015"
         y="-0.0016881528"
         rx="0.46238172"
         ry="0.01777732" />
    </clipPath>
    <clipPath
       clipPathUnits="userSpaceOnUse"
       id="clipPath2406">
      <rect
         style="fill:none;stroke-width:0.734031;stroke-linecap:round;stroke-linejoin:round"
         id="rect2408"
         width="64.793549"
         height="64.793549"
         x="-0.2455015"
         y="-0.0016881528"
         rx="0.46238172"
         ry="0.01777732" />
    </clipPath>
  </defs>
  <sodipodi:namedview
     id="namedview880"
     pagecolor="#ffffff"
     bordercolor="#999999"
     borderopacity="1"
     inkscape:pageshadow="0"
     inkscape:pageopacity="0"
     inkscape:pagecheckerboard="0"
     showgrid="false"
     inkscape:zoom="0.1767767"
     inkscape:cx="-432.74935"
     inkscape:cy="803.2733"
     inkscape:window-width="1366"
     inkscape:window-height="703"
     inkscape:window-x="0"
     inkscape:window-y="0"
     inkscape:window-maximized="1"
     inkscape:current-layer="svg878" />
  <path
     fill="#0a66c2"
     d="m 72.620323,61.1094 a 1.2,1.2 0 0 0 1.21,-1.269 c 0,-0.9 -0.543,-1.33 -1.657,-1.33 h -1.8 v 4.712 h 0.677 v -2.054 h 0.832 l 0.019,0.025 1.291,2.029 h 0.724 l -1.389,-2.1 z m -0.783,-0.472 h -0.785 v -1.593 h 0.995 c 0.514,0 1.1,0.084 1.1,0.757 0,0.774 -0.593,0.836 -1.314,0.836 m -16.873,-5.433 h -9.6 v -15.034 c 0,-3.585 -0.064,-8.2 -4.993,-8.2 -5,0 -5.765,3.906 -5.765,7.939 v 15.294 h -9.6 v -30.916 h 9.216 v 4.225 h 0.129 a 10.1,10.1 0 0 1 9.093,-4.994 c 9.73,0 11.524,6.4 11.524,14.726 z m -40.79,-35.143 a 5.571,5.571 0 1 1 5.57,-5.572 5.571,5.571 0 0 1 -5.57,5.572 m 4.8,35.143 h -9.61 v -30.917 h 9.61 z m 40.776,-55.2 h -55.21 a 4.728,4.728 0 0 0 -4.781,4.67 v 55.439 a 4.731,4.731 0 0 0 4.781,4.675 h 55.21 a 4.741,4.741 0 0 0 4.8,-4.675 V 4.6704 a 4.738,4.738 0 0 0 -4.8,-4.67"
     id="path874"
     clip-path="url(#clipPath2406)"
     transform="translate(6.160565,0.2292196)" />
  <path
     fill="#0a66c2"
     d="M72.164 56.4114a4.418 4.418 0 10.085 0h-.085m0 8.33a3.874 3.874 0 113.809-3.938v.065a3.791 3.791 0 01-3.708 3.871h-.1"
     id="path876"
     clip-path="url(#clipPath2402)" />
  <rect
     style="fill:none;stroke-width:0.734031;stroke-linecap:round;stroke-linejoin:round"
     id="rect1552"
     width="66.451775"
     height="66.46093"
     x="-0.82649827"
     y="-0.69093943" />
  <rect
     style="fill:none;stroke-width:0.734031;stroke-linecap:round;stroke-linejoin:round"
     id="rect1558"
     width="66.451775"
     height="66.46093"
     x="-0.82649738"
     y="-0.69093984" />
  <rect
     style="fill:none;stroke-width:0.734031;stroke-linecap:round;stroke-linejoin:round"
     id="rect1562"
     width="132.90355"
     height="132.92186"
     x="-67.278267"
     y="-67.151871" />
  <rect
     style="fill:none;stroke-width:0.734031;stroke-linecap:round;stroke-linejoin:round"
     id="rect1568"
     width="66.451782"
     height="66.46093"
     x="-0.82649738"
     y="-0.69093984" />
  <rect
     style="fill:none;stroke-width:0.734031;stroke-linecap:round;stroke-linejoin:round"
     id="rect2284"
     width="64.96463"
     height="64.96463"
     x="0.037528321"
     y="0.0078403782"
     rx="0.46238205"
     ry="0.46238205" />
  <rect
     style="fill:none;stroke-width:0.734031;stroke-linecap:round;stroke-linejoin:round"
     id="rect2286"
     width="10.528351"
     height="10.301218"
     x="0.037529487"
     y="0.0078396751"
     rx="0.46238205"
     ry="0.46238205" />
  <rect
     style="fill:none;stroke-width:0.734031;stroke-linecap:round;stroke-linejoin:round"
     id="rect2288"
     width="4.0200853"
     height="8.2200584"
     x="0.037529487"
     y="0.0078396751"
     rx="0.46238205"
     ry="0.46238205" />
  <rect
     style="fill:none;stroke-width:0.734031;stroke-linecap:round;stroke-linejoin:round"
     id="rect2290"
     width="1.0510525"
     height="0.54499012"
     x="-0.49694729"
     y="-0.33623362"
     rx="0.46238205"
     ry="0.46238205" />
  <rect
     style="fill:none;stroke-width:0.734031;stroke-linecap:round;stroke-linejoin:round"
     id="rect2294"
     width="64.788925"
     height="64.788925"
     x="-0.49694729"
     y="-0.33623362"
     rx="0.46238205"
     ry="0.46238205" />
  <rect
     style="fill:none;stroke-width:0.734031;stroke-linecap:round;stroke-linejoin:round"
     id="rect2296"
     width="64.788925"
     height="64.788925"
     x="-0.49694729"
     y="-0.33623362"
     rx="0.46238205"
     ry="0.46238205" />
</svg>
